<?xml version="1.0" encoding="UTF-8" standalone="no"?>
<svg width="512" height="512" viewBox="0 0 512 512" xmlns="http://www.w3.org/2000/svg">
  <!-- Fond circulaire -->
  <circle cx="256" cy="256" r="240" fill="#4A2C8F" />
  
  <!-- Ondes sonores -->
  <path d="M 128,256 Q 192,160 256,256 Q 320,352 384,256" 
        stroke="#FFFFFF" stroke-width="20" fill="none" />
  <path d="M 160,256 Q 208,192 256,256 Q 304,320 352,256" 
        stroke="#FFFFFF" stroke-width="16" fill="none" />
  <path d="M 192,256 Q 224,224 256,256 Q 288,288 320,256" 
        stroke="#FFFFFF" stroke-width="12" fill="none" />
  
  <!-- Microphone -->
  <rect x="236" y="176" width="40" height="80" rx="20" ry="20" fill="#FFFFFF" />
  <path d="M 216,256 L 216,280 Q 216,312 256,312 Q 296,312 296,280 L 296,256" 
        stroke="#FFFFFF" stroke-width="12" fill="none" />
  <rect x="246" y="312" width="20" height="40" fill="#FFFFFF" />
  <rect x="216" y="352" width="80" height="12" rx="6" ry="6" fill="#FFFFFF" />
  
  <!-- Texte "Serveur Whisper" -->
  <text x="256" y="400" font-family="Arial, sans-serif" font-size="32" 
        font-weight="bold" text-anchor="middle" fill="#FFFFFF">Serveur Whisper</text>
</svg>
